PathFileType	4	(X/Y/Z)	s08c0403.trc
DataRate	CameraRate	NumFrames	NumMarkers	Units	OrigDataRate	OrigDataStartFrame	OrigNumFrames
200	200	4	50	mm	200	500	2000
Frame#	Time	racr			lacr			c7			jug			rlel			rdr			llel			ldr			s2			lic			ric			lasi			rasi			rpsi			lpsi			rgt			lgt			rth1			rth2			rth3			rth4			rlfc			rmfc			rsh1			rsh2			rsh3			rsh4			rlmal			rmmal			rcal			rtoe			rmt5			lth1			lth2			lth4			lth3			llfc			lmfc			llmal			lmmal			lcal			lmt5			lsh1			lsh2			lsh3			lsh4			ltoe			SBIKE			LBIKE			RBIKE			
		X1	Y1	Z1	X2	Y2	Z2	X3	Y3	Z3	X4	Y4	Z4	X5	Y5	Z5	X6	Y6	Z6	X7	Y7	Z7	X8	Y8	Z8	X9	Y9	Z9	X10	Y10	Z10	X11	Y11	Z11	X12	Y12	Z12	X13	Y13	Z13	X14	Y14	Z14	X15	Y15	Z15	X16	Y16	Z16	X17	Y17	Z17	X18	Y18	Z18	X19	Y19	Z19	X20	Y20	Z20	X21	Y21	Z21	X22	Y22	Z22	X23	Y23	Z23	X24	Y24	Z24	X25	Y25	Z25	X26	Y26	Z26	X27	Y27	Z27	X28	Y28	Z28	X29	Y29	Z29	X30	Y30	Z30	X31	Y31	Z31	X32	Y32	Z32	X33	Y33	Z33	X34	Y34	Z34	X35	Y35	Z35	X36	Y36	Z36	X37	Y37	Z37	X38	Y38	Z38	X39	Y39	Z39	X40	Y40	Z40	X41	Y41	Z41	X42	Y42	Z42	X43	Y43	Z43	X44	Y44	Z44	X45	Y45	Z45	X46	Y46	Z46	X47	Y47	Z47	X48	Y48	Z48	X49	Y49	Z49	X50	Y50	Z50	
500	2.5000	731.935202	1362.706393	0.320208	754.721955	1358.792282	-362.840257	729.535138	1441.123174	-171.648209	708.025513	1279.776941	-177.727591	601.180578	1117.791096	106.400310	748.690302	928.982831	-57.745298	620.077112	1143.944835	-511.229792	760.501659	929.413216	-445.740205	171.432550	1230.709520	-241.356856	355.041159	1217.372731	-370.285840	317.913128	1211.809858	-58.762674	358.743328	1157.669597	-331.591302	347.133348	1151.929856	-91.044849	205.092802	1265.415680	-185.473653	213.456833	1272.219864	-280.997133	227.855060	1108.505066	-44.099260	288.204493	1110.158467	-416.339193	304.851262	951.732981	-29.606392	358.926257	881.466484	-31.227389	371.169361	795.996507	-45.496230	392.969748	895.984727	-34.935893	418.638284	687.391027	-58.162419	400.229605	677.958798	-167.687246	356.887686	568.775511	-28.474704	361.215325	480.674856	-46.139406	321.157085	404.265905	-54.435512	390.333710	478.592728	-74.394904	286.007400	289.660855	-63.929370	303.854362	310.507983	-152.418161	205.534042	269.281411	-111.283909	501.157838	224.493759	-104.468959	406.962334	201.868506	-40.703027	371.823218	1008.768468	-415.581910	443.693914	959.888856	-408.494594	468.775696	981.449297	-392.798378	482.158087	879.260222	-408.090136	524.871156	762.144556	-388.650284	508.362861	736.818723	-281.862731	164.736234	558.625566	-406.634812	193.028345	548.767114	-320.015538	113.000584	601.581354	-366.747158	158.228160	390.272160	-419.274262	426.338715	688.704960	-414.629935	371.048352	641.236127	-411.426134	276.397144	613.501262	-408.705288	373.420614	618.557190	-368.395964	221.360165	333.794069	-347.513933	-199.369316	921.131054	-228.396094	-9.020751	80.483047	-427.237547	-9.146449	79.938944	-28.942519	
501	2.5050	732.282524	1365.378344	-0.949792	753.802238	1361.101717	-365.354854	728.783043	1444.494954	-173.966505	709.511280	1283.007595	-179.739165	602.277434	1119.895892	104.557945	749.005198	928.740478	-57.858772	620.280188	1143.944891	-512.271090	760.422852	929.376275	-445.749839	171.552042	1228.220319	-240.085513	354.663225	1217.584018	-369.594271	320.003194	1208.532333	-58.199840	359.398481	1157.694549	-331.245861	348.796303	1148.853855	-90.776561	205.523653	1262.397153	-183.173158	212.089836	1270.439514	-279.680928	228.486913	1104.038177	-44.172613	289.317072	1109.954019	-416.151788	302.273578	947.014195	-29.703425	355.024605	875.696160	-31.404523	365.412165	790.183887	-45.411222	389.237645	889.591977	-35.142635	410.759891	680.696865	-59.057768	392.453732	670.156785	-168.235848	349.989561	561.817371	-28.637927	354.691531	473.838513	-46.294598	314.899560	397.316466	-54.374599	383.724479	472.062017	-75.005192	280.128676	282.504922	-63.473113	297.873688	303.199026	-152.232794	199.654773	262.624073	-110.770053	495.101322	216.294334	-104.689673	400.865609	194.127186	-40.732172	374.684469	1010.004769	-416.386889	447.626452	962.634875	-409.428956	472.221256	984.782530	-393.717987	487.713861	882.834375	-408.823064	532.339473	767.413369	-388.771860	516.815509	742.068477	-281.261672	171.660145	566.037730	-406.111475	199.978290	555.903250	-319.927241	119.761545	608.990761	-366.248283	164.655629	397.707047	-419.226533	435.053696	694.573532	-414.378046	378.867471	647.362128	-410.683061	286.624826	624.083354	-414.201338	389.818833	630.046298	-376.531763	227.569209	340.909801	-347.412621	-204.138989	918.084443	-231.900876	-9.015218	80.455858	-427.223791	-9.155146	79.921453	-28.928652	
502	2.5100	732.683902	1368.293631	-2.275166	758.982927	1365.301702	-374.862647	728.054598	1447.921917	-176.407350	710.933924	1286.326697	-181.618787	603.421527	1122.104192	102.436478	749.843300	929.032404	-57.797665	620.149472	1144.232154	-513.700752	760.250001	929.366699	-445.741337	171.902887	1226.174532	-237.913226	354.266800	1217.842134	-369.016318	322.182700	1205.443886	-57.622531	359.927811	1157.881699	-331.027904	350.307017	1145.960694	-90.588149	206.156908	1259.155534	-181.081728	211.825351	1268.051837	-277.643689	229.248961	1100.093414	-44.072297	290.061100	1109.848138	-416.342577	299.536747	942.930047	-29.616168	350.683671	870.528677	-31.559049	357.377147	784.625848	-45.248677	385.511075	883.579663	-35.186993	402.683172	674.456994	-59.590032	384.150826	663.724633	-168.231061	342.770089	555.465895	-28.696407	347.689915	467.440315	-46.345339	308.219172	390.713363	-54.183778	376.580148	465.804702	-75.227486	273.905519	275.891407	-63.090138	291.458689	296.334139	-151.946072	193.458692	256.460300	-110.236237	488.613768	208.558740	-104.814621	394.414216	186.757562	-40.797075	377.021058	1011.184870	-417.213526	451.024995	965.355673	-410.064519	474.955744	987.896387	-394.061635	492.732917	886.410644	-409.620111	539.794948	772.614197	-388.483906	524.841097	747.345369	-280.648116	178.291825	573.289003	-405.472859	206.642791	562.849619	-319.778390	126.161191	616.081058	-365.682244	171.497046	404.977242	-419.169670	443.318638	700.257275	-413.888962	386.580633	653.406439	-410.305323	291.832712	627.172847	-407.693630	397.153465	635.990560	-375.916708	234.425743	348.087576	-347.465219	-204.187536	917.991515	-231.897255	-9.014746	80.438285	-427.196157	-9.153766	79.892461	-28.902684	
503	2.5150	733.177462	1371.403329	-3.590956	758.394806	1367.630081	-377.790529	727.304783	1451.531209	-178.976947	712.268529	1289.727119	-183.603599	604.550774	1124.540321	100.058761	750.903910	929.318540	-57.134350	619.713360	1144.638842	-515.094596	759.988793	929.445180	-445.688638	172.372881	1223.575379	-235.095982	353.778281	1218.199108	-368.379149	324.490828	1202.777611	-57.146607	360.556842	1158.195619	-330.524792	351.693925	1143.278704	-90.216023	206.882314	1256.826627	-178.975931	212.284777	1265.779243	-274.407589	229.935915	1096.759706	-44.253226	290.713696	1109.663315	-416.019841	296.827824	939.151440	-29.436644	346.234592	865.792047	-31.589492	351.826306	779.716358	-45.688721	381.218809	878.194435	-35.214521	394.665342	668.708678	-59.731973	375.280365	657.888959	-168.166925	334.982754	549.541749	-28.690206	340.257674	461.588395	-46.382797	301.160260	384.656958	-54.003669	369.485822	459.919038	-75.572234	267.266648	269.693717	-62.627335	284.665669	289.988831	-151.680421	186.910954	250.764059	-109.744544	481.867117	201.099711	-104.959038	387.548778	179.859872	-40.758552	378.956752	1012.312809	-417.751852	453.966260	968.076666	-410.212942	477.054014	990.880906	-393.881547	497.364888	890.135424	-410.338617	546.457815	777.871655	-388.559477	532.331972	752.675000	-280.319231	184.665127	580.303244	-404.969263	213.033672	569.675956	-319.742180	132.126043	622.662226	-365.182265	178.756202	412.012711	-419.110927	450.905537	705.912138	-413.455158	385.389461	654.177603	-401.496737	299.049105	632.196847	-404.107583	395.016089	635.571758	-365.114669	241.870561	355.399253	-347.569230	-204.271359	917.888031	-232.031929	-9.010195	80.388058	-427.182974	-9.163141	79.823933	-28.892154	
